<?xml version="1.0" encoding="utf-8"?>
<!-- Generator: Adobe Illustrator 18.0.0, SVG Export Plug-In . SVG Version: 6.00 Build 0)  -->
<!DOCTYPE svg PUBLIC "-//W3C//DTD SVG 1.1//EN" "http://www.w3.org/Graphics/SVG/1.1/DTD/svg11.dtd">
<svg version="1.1" id="Layer_1" xmlns="http://www.w3.org/2000/svg" xmlns:xlink="http://www.w3.org/1999/xlink" x="0px" y="0px"
	 viewBox="0 0 42 42" enable-background="new 0 0 84 42" xml:space="preserve">
<g>
	<rect x="0" fill="#399AD5" width="43.6" height="42"/>
	<g>
		<path fill="#FFFFFF" d="M5.8,14.7c0,0.7-0.3,1-1,1c-0.7,0-1-0.3-1-1c0-0.7,0.3-1,1-1C5.4,13.7,5.8,14.1,5.8,14.7z M5.8,16.9
			c0,0.7-0.3,1-1,1c-0.7,0-1-0.3-1-1c0-0.7,0.3-1,1-1C5.4,15.9,5.8,16.3,5.8,16.9z M8,14.7c0,0.7-0.3,1-1,1c-0.7,0-1-0.3-1-1
			c0-0.7,0.3-1,1-1C7.6,13.7,8,14.1,8,14.7z M8,16.9c0,0.7-0.3,1-1,1c-0.7,0-1-0.3-1-1c0-0.7,0.3-1,1-1C7.6,15.9,8,16.3,8,16.9z
			 M8,19.2c0,0.7-0.3,1-1,1c-0.7,0-1-0.3-1-1c0-0.7,0.3-1,1-1C7.6,18.1,8,18.5,8,19.2z M8,21.4c0,0.7-0.3,1-1,1c-0.7,0-1-0.3-1-1
			c0-0.7,0.3-1,1-1C7.6,20.4,8,20.7,8,21.4z M8,23.6c0,0.7-0.3,1-1,1c-0.7,0-1-0.3-1-1c0-0.7,0.3-1,1-1C7.6,22.6,8,22.9,8,23.6z
			 M8,25.8c0,0.7-0.3,1-1,1c-0.7,0-1-0.3-1-1c0-0.7,0.3-1,1-1C7.6,24.8,8,25.1,8,25.8z M8,28c0,0.7-0.3,1-1,1c-0.7,0-1-0.3-1-1
			c0-0.7,0.3-1,1-1C7.6,27,8,27.3,8,28z M8,30.2c0,0.7-0.3,1-1,1c-0.7,0-1-0.3-1-1c0-0.7,0.3-1,1-1C7.6,29.2,8,29.5,8,30.2z M8,32.4
			c0,0.7-0.3,1-1,1c-0.7,0-1-0.3-1-1c0-0.7,0.3-1,1-1C7.6,31.4,8,31.8,8,32.4z M8,34.6c0,0.7-0.3,1-1,1c-0.7,0-1-0.3-1-1
			c0-0.7,0.3-1,1-1C7.6,33.6,8,34,8,34.6z M8,36.9c0,0.7-0.3,1-1,1c-0.7,0-1-0.3-1-1c0-0.7,0.3-1,1-1C7.6,35.8,8,36.2,8,36.9z
			 M10.2,14.7c0,0.7-0.3,1-1,1c-0.7,0-1-0.3-1-1c0-0.7,0.3-1,1-1C9.8,13.7,10.2,14.1,10.2,14.7z M10.2,16.9c0,0.7-0.3,1-1,1
			c-0.7,0-1-0.3-1-1c0-0.7,0.3-1,1-1C9.8,15.9,10.2,16.3,10.2,16.9z M10.2,19.2c0,0.7-0.3,1-1,1c-0.7,0-1-0.3-1-1c0-0.7,0.3-1,1-1
			C9.8,18.1,10.2,18.5,10.2,19.2z M10.2,21.4c0,0.7-0.3,1-1,1c-0.7,0-1-0.3-1-1c0-0.7,0.3-1,1-1C9.8,20.4,10.2,20.7,10.2,21.4z
			 M10.2,23.6c0,0.7-0.3,1-1,1c-0.7,0-1-0.3-1-1c0-0.7,0.3-1,1-1C9.8,22.6,10.2,22.9,10.2,23.6z M10.2,25.8c0,0.7-0.3,1-1,1
			c-0.7,0-1-0.3-1-1c0-0.7,0.3-1,1-1C9.8,24.8,10.2,25.1,10.2,25.8z M10.2,28c0,0.7-0.3,1-1,1c-0.7,0-1-0.3-1-1c0-0.7,0.3-1,1-1
			C9.8,27,10.2,27.3,10.2,28z M10.2,30.2c0,0.7-0.3,1-1,1c-0.7,0-1-0.3-1-1c0-0.7,0.3-1,1-1C9.8,29.2,10.2,29.5,10.2,30.2z
			 M10.2,32.4c0,0.7-0.3,1-1,1c-0.7,0-1-0.3-1-1c0-0.7,0.3-1,1-1C9.8,31.4,10.2,31.8,10.2,32.4z M10.2,34.6c0,0.7-0.3,1-1,1
			c-0.7,0-1-0.3-1-1c0-0.7,0.3-1,1-1C9.8,33.6,10.2,34,10.2,34.6z M10.2,36.9c0,0.7-0.3,1-1,1c-0.7,0-1-0.3-1-1c0-0.7,0.3-1,1-1
			C9.8,35.8,10.2,36.2,10.2,36.9z"/>
		<path fill="#FFFFFF" d="M13.1,16.9c0-0.7,0.3-1,1-1c0.7,0,1,0.3,1,1c0,0.7-0.3,1-1,1C13.4,18,13.1,17.6,13.1,16.9z M13.1,19.2
			c0-0.7,0.3-1,1-1c0.7,0,1,0.3,1,1c0,0.7-0.3,1-1,1C13.4,20.2,13.1,19.8,13.1,19.2z M13.1,21.4c0-0.7,0.3-1,1-1c0.7,0,1,0.3,1,1
			c0,0.7-0.3,1-1,1C13.4,22.4,13.1,22,13.1,21.4z M13.1,23.6c0-0.7,0.3-1,1-1c0.7,0,1,0.3,1,1c0,0.7-0.3,1-1,1
			C13.4,24.6,13.1,24.3,13.1,23.6z M13.1,25.8c0-0.7,0.3-1,1-1c0.7,0,1,0.3,1,1c0,0.7-0.3,1-1,1C13.4,26.8,13.1,26.5,13.1,25.8z
			 M13.1,28c0-0.7,0.3-1,1-1c0.7,0,1,0.3,1,1c0,0.7-0.3,1-1,1C13.4,29,13.1,28.7,13.1,28z M13.1,30.2c0-0.7,0.3-1,1-1
			c0.7,0,1,0.3,1,1c0,0.7-0.3,1-1,1C13.4,31.2,13.1,30.9,13.1,30.2z M13.1,32.4c0-0.7,0.3-1,1-1c0.7,0,1,0.3,1,1c0,0.7-0.3,1-1,1
			C13.4,33.4,13.1,33.1,13.1,32.4z M13.1,34.6c0-0.7,0.3-1,1-1c0.7,0,1,0.3,1,1c0,0.7-0.3,1-1,1C13.4,35.7,13.1,35.3,13.1,34.6z
			 M15.3,14.7c0-0.7,0.3-1,1-1c0.7,0,1,0.3,1,1c0,0.7-0.3,1-1,1C15.6,15.7,15.3,15.4,15.3,14.7z M15.3,16.9c0-0.7,0.3-1,1-1
			c0.7,0,1,0.3,1,1c0,0.7-0.3,1-1,1C15.6,18,15.3,17.6,15.3,16.9z M15.3,19.2c0-0.7,0.3-1,1-1c0.7,0,1,0.3,1,1c0,0.7-0.3,1-1,1
			C15.6,20.2,15.3,19.8,15.3,19.2z M15.3,21.4c0-0.7,0.3-1,1-1c0.7,0,1,0.3,1,1c0,0.7-0.3,1-1,1C15.6,22.4,15.3,22,15.3,21.4z
			 M15.3,23.6c0-0.7,0.3-1,1-1c0.7,0,1,0.3,1,1c0,0.7-0.3,1-1,1C15.6,24.6,15.3,24.3,15.3,23.6z M15.3,25.8c0-0.7,0.3-1,1-1
			c0.7,0,1,0.3,1,1c0,0.7-0.3,1-1,1C15.6,26.8,15.3,26.5,15.3,25.8z M15.3,28c0-0.7,0.3-1,1-1c0.7,0,1,0.3,1,1c0,0.7-0.3,1-1,1
			C15.6,29,15.3,28.7,15.3,28z M15.3,30.2c0-0.7,0.3-1,1-1c0.7,0,1,0.3,1,1c0,0.7-0.3,1-1,1C15.6,31.2,15.3,30.9,15.3,30.2z
			 M15.3,32.4c0-0.7,0.3-1,1-1c0.7,0,1,0.3,1,1c0,0.7-0.3,1-1,1C15.6,33.4,15.3,33.1,15.3,32.4z M15.3,34.6c0-0.7,0.3-1,1-1
			c0.7,0,1,0.3,1,1c0,0.7-0.3,1-1,1C15.6,35.7,15.3,35.3,15.3,34.6z M15.3,36.9c0-0.7,0.3-1,1-1c0.7,0,1,0.3,1,1c0,0.7-0.3,1-1,1
			C15.6,37.9,15.3,37.5,15.3,36.9z M17.5,14.7c0-0.7,0.3-1,1-1c0.7,0,1,0.3,1,1c0,0.7-0.3,1-1,1C17.8,15.7,17.5,15.4,17.5,14.7z
			 M17.5,16.9c0-0.7,0.3-1,1-1c0.7,0,1,0.3,1,1c0,0.7-0.3,1-1,1C17.8,18,17.5,17.6,17.5,16.9z M17.5,34.6c0-0.7,0.3-1,1-1
			c0.7,0,1,0.3,1,1c0,0.7-0.3,1-1,1C17.8,35.7,17.5,35.3,17.5,34.6z M17.5,36.9c0-0.7,0.3-1,1-1c0.7,0,1,0.3,1,1c0,0.7-0.3,1-1,1
			C17.8,37.9,17.5,37.5,17.5,36.9z M19.7,14.7c0-0.7,0.3-1,1-1c0.7,0,1,0.3,1,1c0,0.7-0.3,1-1,1C20,15.7,19.7,15.4,19.7,14.7z
			 M19.7,16.9c0-0.7,0.3-1,1-1c0.7,0,1,0.3,1,1c0,0.7-0.3,1-1,1C20,18,19.7,17.6,19.7,16.9z M19.7,34.6c0-0.7,0.3-1,1-1
			c0.7,0,1,0.3,1,1c0,0.7-0.3,1-1,1C20,35.7,19.7,35.3,19.7,34.6z M19.7,36.9c0-0.7,0.3-1,1-1c0.7,0,1,0.3,1,1c0,0.7-0.3,1-1,1
			C20,37.9,19.7,37.5,19.7,36.9z M21.9,16.9c0-0.7,0.3-1,1-1c0.7,0,1,0.3,1,1c0,0.7-0.3,1-1,1C22.3,18,21.9,17.6,21.9,16.9z
			 M21.9,19.2c0-0.7,0.3-1,1-1c0.7,0,1,0.3,1,1c0,0.7-0.3,1-1,1C22.3,20.2,21.9,19.8,21.9,19.2z M21.9,21.4c0-0.7,0.3-1,1-1
			c0.7,0,1,0.3,1,1c0,0.7-0.3,1-1,1C22.3,22.4,21.9,22,21.9,21.4z M21.9,23.6c0-0.7,0.3-1,1-1c0.7,0,1,0.3,1,1c0,0.7-0.3,1-1,1
			C22.3,24.6,21.9,24.3,21.9,23.6z M21.9,25.8c0-0.7,0.3-1,1-1c0.7,0,1,0.3,1,1c0,0.7-0.3,1-1,1C22.3,26.8,21.9,26.5,21.9,25.8z
			 M21.9,28c0-0.7,0.3-1,1-1c0.7,0,1,0.3,1,1c0,0.7-0.3,1-1,1C22.3,29,21.9,28.7,21.9,28z M21.9,30.2c0-0.7,0.3-1,1-1
			c0.7,0,1,0.3,1,1c0,0.7-0.3,1-1,1C22.3,31.2,21.9,30.9,21.9,30.2z M21.9,32.4c0-0.7,0.3-1,1-1c0.7,0,1,0.3,1,1c0,0.7-0.3,1-1,1
			C22.3,33.4,21.9,33.1,21.9,32.4z M21.9,34.6c0-0.7,0.3-1,1-1c0.7,0,1,0.3,1,1c0,0.7-0.3,1-1,1C22.3,35.7,21.9,35.3,21.9,34.6z
			 M21.9,36.9c0-0.7,0.3-1,1-1c0.7,0,1,0.3,1,1c0,0.7-0.3,1-1,1C22.3,37.9,21.9,37.5,21.9,36.9z M30.1,12.3 M24.1,19.2
			c0-0.7,0.3-1,1-1c0.7,0,1,0.3,1,1c0,0.7-0.3,1-1,1C24.5,20.2,24.1,19.8,24.1,19.2z M24.1,21.4c0-0.7,0.3-1,1-1c0.7,0,1,0.3,1,1
			c0,0.7-0.3,1-1,1C24.5,22.4,24.1,22,24.1,21.4z M24.1,23.6c0-0.7,0.3-1,1-1c0.7,0,1,0.3,1,1c0,0.7-0.3,1-1,1
			C24.5,24.6,24.1,24.3,24.1,23.6z M24.1,25.8c0-0.7,0.3-1,1-1c0.7,0,1,0.3,1,1c0,0.7-0.3,1-1,1C24.5,26.8,24.1,26.5,24.1,25.8z
			 M24.1,28c0-0.7,0.3-1,1-1c0.7,0,1,0.3,1,1c0,0.7-0.3,1-1,1C24.5,29,24.1,28.7,24.1,28z M24.1,30.2c0-0.7,0.3-1,1-1
			c0.7,0,1,0.3,1,1c0,0.7-0.3,1-1,1C24.5,31.2,24.1,30.9,24.1,30.2z M24.1,32.4c0-0.7,0.3-1,1-1c0.7,0,1,0.3,1,1c0,0.7-0.3,1-1,1
			C24.5,33.4,24.1,33.1,24.1,32.4z M24.1,34.6c0-0.7,0.3-1,1-1c0.7,0,1,0.3,1,1c0,0.7-0.3,1-1,1C24.5,35.7,24.1,35.3,24.1,34.6z"/>
		<g>
			<path fill="#FFFFFF" d="M27.3,20.6c0-0.3,0.2-0.5,0.5-0.5c0.3,0,0.5,0.2,0.5,0.5c0,0.3-0.2,0.5-0.5,0.5
				C27.4,21.1,27.3,20.9,27.3,20.6z M27.3,21.7c0-0.3,0.2-0.5,0.5-0.5c0.3,0,0.5,0.2,0.5,0.5c0,0.3-0.2,0.5-0.5,0.5
				C27.4,22.2,27.3,22,27.3,21.7z M28.4,20.6c0-0.3,0.2-0.5,0.5-0.5c0.3,0,0.5,0.2,0.5,0.5c0,0.3-0.2,0.5-0.5,0.5
				C28.5,21.1,28.4,20.9,28.4,20.6z M28.4,21.7c0-0.3,0.2-0.5,0.5-0.5c0.3,0,0.5,0.2,0.5,0.5c0,0.3-0.2,0.5-0.5,0.5
				C28.5,22.2,28.4,22,28.4,21.7z M29.4,20.6c0-0.3,0.2-0.5,0.5-0.5c0.3,0,0.5,0.2,0.5,0.5c0,0.3-0.2,0.5-0.5,0.5
				C29.6,21.1,29.4,20.9,29.4,20.6z M29.4,21.7c0-0.3,0.2-0.5,0.5-0.5c0.3,0,0.5,0.2,0.5,0.5c0,0.3-0.2,0.5-0.5,0.5
				C29.6,22.2,29.4,22,29.4,21.7z M30.5,20.6c0-0.3,0.2-0.5,0.5-0.5c0.3,0,0.5,0.2,0.5,0.5c0,0.3-0.2,0.5-0.5,0.5
				C30.7,21.1,30.5,20.9,30.5,20.6z M30.5,21.7c0-0.3,0.2-0.5,0.5-0.5c0.3,0,0.5,0.2,0.5,0.5c0,0.3-0.2,0.5-0.5,0.5
				C30.7,22.2,30.5,22,30.5,21.7z"/>
			<path fill="#FFFFFF" d="M34,15.1c0,0.3-0.2,0.5-0.5,0.5c-0.3,0-0.5-0.2-0.5-0.5c0-0.3,0.2-0.5,0.5-0.5C33.8,14.6,34,14.8,34,15.1
				z M34,16.2c0,0.3-0.2,0.5-0.5,0.5c-0.3,0-0.5-0.2-0.5-0.5c0-0.3,0.2-0.5,0.5-0.5C33.8,15.7,34,15.9,34,16.2z M34,17.3
				c0,0.3-0.2,0.5-0.5,0.5c-0.3,0-0.5-0.2-0.5-0.5c0-0.3,0.2-0.5,0.5-0.5C33.8,16.8,34,17,34,17.3z M34,18.4c0,0.3-0.2,0.5-0.5,0.5
				c-0.3,0-0.5-0.2-0.5-0.5c0-0.3,0.2-0.5,0.5-0.5C33.8,17.9,34,18.1,34,18.4z M34,21.7c0,0.3-0.2,0.5-0.5,0.5
				c-0.3,0-0.5-0.2-0.5-0.5c0-0.3,0.2-0.5,0.5-0.5C33.8,21.2,34,21.4,34,21.7z M34,22.8c0,0.3-0.2,0.5-0.5,0.5
				c-0.3,0-0.5-0.2-0.5-0.5c0-0.3,0.2-0.5,0.5-0.5C33.8,22.3,34,22.4,34,22.8z M34,23.9c0,0.3-0.2,0.5-0.5,0.5
				c-0.3,0-0.5-0.2-0.5-0.5c0-0.3,0.2-0.5,0.5-0.5C33.8,23.4,34,23.5,34,23.9z M35.1,14.1c0,0.3-0.2,0.5-0.5,0.5
				c-0.3,0-0.5-0.2-0.5-0.5c0-0.3,0.2-0.5,0.5-0.5C34.9,13.6,35.1,13.7,35.1,14.1z M35.1,15.1c0,0.3-0.2,0.5-0.5,0.5
				c-0.3,0-0.5-0.2-0.5-0.5c0-0.3,0.2-0.5,0.5-0.5C34.9,14.6,35.1,14.8,35.1,15.1z M35.1,16.2c0,0.3-0.2,0.5-0.5,0.5
				c-0.3,0-0.5-0.2-0.5-0.5c0-0.3,0.2-0.5,0.5-0.5C34.9,15.7,35.1,15.9,35.1,16.2z M35.1,17.3c0,0.3-0.2,0.5-0.5,0.5
				c-0.3,0-0.5-0.2-0.5-0.5c0-0.3,0.2-0.5,0.5-0.5C34.9,16.8,35.1,17,35.1,17.3z M35.1,18.4c0,0.3-0.2,0.5-0.5,0.5
				c-0.3,0-0.5-0.2-0.5-0.5c0-0.3,0.2-0.5,0.5-0.5C34.9,17.9,35.1,18.1,35.1,18.4z M35.1,19.5c0,0.3-0.2,0.5-0.5,0.5
				c-0.3,0-0.5-0.2-0.5-0.5c0-0.3,0.2-0.5,0.5-0.5C34.9,19,35.1,19.2,35.1,19.5z M35.1,21.7c0,0.3-0.2,0.5-0.5,0.5
				c-0.3,0-0.5-0.2-0.5-0.5c0-0.3,0.2-0.5,0.5-0.5C34.9,21.2,35.1,21.4,35.1,21.7z M35.1,22.8c0,0.3-0.2,0.5-0.5,0.5
				c-0.3,0-0.5-0.2-0.5-0.5c0-0.3,0.2-0.5,0.5-0.5C34.9,22.3,35.1,22.4,35.1,22.8z M35.1,23.9c0,0.3-0.2,0.5-0.5,0.5
				c-0.3,0-0.5-0.2-0.5-0.5c0-0.3,0.2-0.5,0.5-0.5C34.9,23.4,35.1,23.5,35.1,23.9z M35.1,25c0,0.3-0.2,0.5-0.5,0.5
				c-0.3,0-0.5-0.2-0.5-0.5c0-0.3,0.2-0.5,0.5-0.5C34.9,24.5,35.1,24.6,35.1,25z M36.1,14.1c0,0.3-0.2,0.5-0.5,0.5
				c-0.3,0-0.5-0.2-0.5-0.5c0-0.3,0.2-0.5,0.5-0.5C36,13.6,36.1,13.7,36.1,14.1z M36.1,15.1c0,0.3-0.2,0.5-0.5,0.5
				c-0.3,0-0.5-0.2-0.5-0.5c0-0.3,0.2-0.5,0.5-0.5C36,14.6,36.1,14.8,36.1,15.1z M36.1,18.4c0,0.3-0.2,0.5-0.5,0.5
				c-0.3,0-0.5-0.2-0.5-0.5c0-0.3,0.2-0.5,0.5-0.5C36,17.9,36.1,18.1,36.1,18.4z M36.1,19.5c0,0.3-0.2,0.5-0.5,0.5
				c-0.3,0-0.5-0.2-0.5-0.5c0-0.3,0.2-0.5,0.5-0.5C36,19,36.1,19.2,36.1,19.5z M36.1,23.9c0,0.3-0.2,0.5-0.5,0.5
				c-0.3,0-0.5-0.2-0.5-0.5c0-0.3,0.2-0.5,0.5-0.5C36,23.4,36.1,23.5,36.1,23.9z M36.1,25c0,0.3-0.2,0.5-0.5,0.5
				c-0.3,0-0.5-0.2-0.5-0.5c0-0.3,0.2-0.5,0.5-0.5C36,24.5,36.1,24.6,36.1,25z M37.2,18.4c0,0.3-0.2,0.5-0.5,0.5
				c-0.3,0-0.5-0.2-0.5-0.5c0-0.3,0.2-0.5,0.5-0.5C37.1,17.9,37.2,18.1,37.2,18.4z M37.2,19.5c0,0.3-0.2,0.5-0.5,0.5
				c-0.3,0-0.5-0.2-0.5-0.5c0-0.3,0.2-0.5,0.5-0.5C37.1,19,37.2,19.2,37.2,19.5z M37.2,14.1c0,0.3-0.2,0.5-0.5,0.5
				c-0.3,0-0.5-0.2-0.5-0.5c0-0.3,0.2-0.5,0.5-0.5C37.1,13.6,37.2,13.7,37.2,14.1z M37.2,15.1c0,0.3-0.2,0.5-0.5,0.5
				c-0.3,0-0.5-0.2-0.5-0.5c0-0.3,0.2-0.5,0.5-0.5C37.1,14.6,37.2,14.8,37.2,15.1z M37.2,23.9c0,0.3-0.2,0.5-0.5,0.5
				c-0.3,0-0.5-0.2-0.5-0.5c0-0.3,0.2-0.5,0.5-0.5C37.1,23.4,37.2,23.5,37.2,23.9z M37.2,25c0,0.3-0.2,0.5-0.5,0.5
				c-0.3,0-0.5-0.2-0.5-0.5c0-0.3,0.2-0.5,0.5-0.5C37.1,24.5,37.2,24.6,37.2,25z M38.3,14.1c0,0.3-0.2,0.5-0.5,0.5
				c-0.3,0-0.5-0.2-0.5-0.5c0-0.3,0.2-0.5,0.5-0.5C38.2,13.6,38.3,13.7,38.3,14.1z M38.3,15.1c0,0.3-0.2,0.5-0.5,0.5
				c-0.3,0-0.5-0.2-0.5-0.5c0-0.3,0.2-0.5,0.5-0.5C38.2,14.6,38.3,14.8,38.3,15.1z M38.3,16.2c0,0.3-0.2,0.5-0.5,0.5
				c-0.3,0-0.5-0.2-0.5-0.5c0-0.3,0.2-0.5,0.5-0.5C38.2,15.7,38.3,15.9,38.3,16.2z M38.3,17.3c0,0.3-0.2,0.5-0.5,0.5
				c-0.3,0-0.5-0.2-0.5-0.5c0-0.3,0.2-0.5,0.5-0.5C38.2,16.8,38.3,17,38.3,17.3z M38.3,18.4c0,0.3-0.2,0.5-0.5,0.5
				c-0.3,0-0.5-0.2-0.5-0.5c0-0.3,0.2-0.5,0.5-0.5C38.2,17.9,38.3,18.1,38.3,18.4z M38.3,19.5c0,0.3-0.2,0.5-0.5,0.5
				c-0.3,0-0.5-0.2-0.5-0.5c0-0.3,0.2-0.5,0.5-0.5C38.2,19,38.3,19.2,38.3,19.5z M38.3,20.6c0,0.3-0.2,0.5-0.5,0.5
				c-0.3,0-0.5-0.2-0.5-0.5c0-0.3,0.2-0.5,0.5-0.5C38.2,20.1,38.3,20.3,38.3,20.6z M38.3,21.7c0,0.3-0.2,0.5-0.5,0.5
				c-0.3,0-0.5-0.2-0.5-0.5c0-0.3,0.2-0.5,0.5-0.5C38.2,21.2,38.3,21.4,38.3,21.7z M38.3,22.8c0,0.3-0.2,0.5-0.5,0.5
				c-0.3,0-0.5-0.2-0.5-0.5c0-0.3,0.2-0.5,0.5-0.5C38.2,22.3,38.3,22.4,38.3,22.8z M38.3,23.9c0,0.3-0.2,0.5-0.5,0.5
				c-0.3,0-0.5-0.2-0.5-0.5c0-0.3,0.2-0.5,0.5-0.5C38.2,23.4,38.3,23.5,38.3,23.9z M38.3,25c0,0.3-0.2,0.5-0.5,0.5
				c-0.3,0-0.5-0.2-0.5-0.5c0-0.3,0.2-0.5,0.5-0.5C38.2,24.5,38.3,24.6,38.3,25z M39.4,15.1c0,0.3-0.2,0.5-0.5,0.5
				c-0.3,0-0.5-0.2-0.5-0.5c0-0.3,0.2-0.5,0.5-0.5C39.2,14.6,39.4,14.8,39.4,15.1z M39.4,16.2c0,0.3-0.2,0.5-0.5,0.5
				c-0.3,0-0.5-0.2-0.5-0.5c0-0.3,0.2-0.5,0.5-0.5C39.2,15.7,39.4,15.9,39.4,16.2z M39.4,17.3c0,0.3-0.2,0.5-0.5,0.5
				c-0.3,0-0.5-0.2-0.5-0.5c0-0.3,0.2-0.5,0.5-0.5C39.2,16.8,39.4,17,39.4,17.3z M39.4,18.4c0,0.3-0.2,0.5-0.5,0.5
				c-0.3,0-0.5-0.2-0.5-0.5c0-0.3,0.2-0.5,0.5-0.5C39.2,17.9,39.4,18.1,39.4,18.4z M39.4,19.5c0,0.3-0.2,0.5-0.5,0.5
				c-0.3,0-0.5-0.2-0.5-0.5c0-0.3,0.2-0.5,0.5-0.5C39.2,19,39.4,19.2,39.4,19.5z M39.4,20.6c0,0.3-0.2,0.5-0.5,0.5
				c-0.3,0-0.5-0.2-0.5-0.5c0-0.3,0.2-0.5,0.5-0.5C39.2,20.1,39.4,20.3,39.4,20.6z M39.4,21.7c0,0.3-0.2,0.5-0.5,0.5
				c-0.3,0-0.5-0.2-0.5-0.5c0-0.3,0.2-0.5,0.5-0.5C39.2,21.2,39.4,21.4,39.4,21.7z M39.4,22.8c0,0.3-0.2,0.5-0.5,0.5
				c-0.3,0-0.5-0.2-0.5-0.5c0-0.3,0.2-0.5,0.5-0.5C39.2,22.3,39.4,22.4,39.4,22.8z M39.4,23.9c0,0.3-0.2,0.5-0.5,0.5
				c-0.3,0-0.5-0.2-0.5-0.5c0-0.3,0.2-0.5,0.5-0.5C39.2,23.4,39.4,23.5,39.4,23.9z"/>
		</g>
		<path fill="#FFFFFF" d="M22.4,12.7"/>
		<path fill="#FFFFFF" d="M25.2,19.5l-2.4-2.4l3.6-5.2L37,7.2l0.2,0.3L25.2,19.5z M23.3,17.1l1.9,1.9L36.2,8l-9.6,4.2L23.3,17.1z"/>
		<circle fill="#FFFFFF" cx="36.2" cy="7.2" r="3.7"/>
		<circle fill="#FFFFFF" cx="26.4" cy="12" r="2.4"/>
	</g>
</g>
</svg>
